<svg version="1.1" id="Layer_1" xmlns="http://www.w3.org/2000/svg" xmlns:xlink="http://www.w3.org/1999/xlink" x="0px" y="0px"
	 width="100%" viewBox="0 0 1024 1024" enable-background="new 0 0 1024 1024" xml:space="preserve">
<path fill="#000000" opacity="1.000000" stroke="none" 
	d="
M331.403992,443.719910 
	C330.526459,432.852386 330.526459,432.850677 341.196930,432.827942 
	C344.528198,432.820862 347.860962,432.887909 351.190247,432.806427 
	C354.136047,432.734283 355.216187,434.086182 355.441132,436.995422 
	C356.110260,445.648834 355.898163,454.304199 355.894379,462.961548 
	C355.893280,465.487823 354.945892,467.396851 352.666595,468.724823 
	C348.206757,471.323151 343.797791,474.012634 339.426697,476.758209 
	C336.496582,478.598633 333.974060,478.182556 331.142059,476.289825 
	C314.529724,465.187042 297.747681,454.336273 281.223663,443.105042 
	C277.880615,440.832825 275.560211,440.864380 272.326324,442.989197 
	C251.735687,456.518158 231.078506,469.947296 210.336777,483.243225 
	C207.340332,485.163971 207.320297,487.652802 207.320724,490.529999 
	C207.325211,520.678345 207.302979,550.826721 207.280472,580.975037 
	C207.275085,588.191284 207.261215,588.272827 200.096146,588.201782 
	C183.044586,588.032715 185.832031,590.096130 185.735245,574.018860 
	C185.589828,549.867798 185.627075,525.714478 185.806366,501.563751 
	C185.836395,497.518433 184.508408,495.756897 180.533279,495.668274 
	C176.470016,495.577728 172.739227,494.669128 171.958023,489.818726 
	C171.151306,484.809723 172.461212,480.752869 177.098694,477.851044 
	C189.378647,470.167145 201.543869,462.299194 213.725998,454.459808 
	C231.367142,443.107513 249.188446,432.017273 266.515808,420.203522 
	C274.228180,414.945282 280.746521,415.399445 287.989838,420.438446 
	C300.288605,428.994385 312.759857,437.302979 325.191681,445.666321 
	C326.669128,446.660248 328.014709,448.023315 329.965759,448.150269 
	C331.540283,447.153381 331.185303,445.524780 331.403992,443.719910 
z"/>
<path fill="#000000" opacity="1.000000" stroke="none" 
	d="
M392.377563,587.846191 
	C375.459290,587.956848 358.980896,587.964478 342.502625,588.002014 
	C339.229340,588.009460 337.679688,586.613525 337.685577,583.187622 
	C337.736938,553.220398 337.724915,523.252991 337.683960,493.285645 
	C337.680695,490.896790 338.588531,489.284027 340.475403,487.823212 
	C346.393768,483.241272 352.480042,479.915375 360.500061,480.554443 
	C371.920074,481.464355 383.492767,479.528931 394.862183,481.763611 
	C409.604767,484.661377 418.812073,496.326172 418.247284,510.967957 
	C418.019592,516.871704 415.946991,522.015381 411.718414,526.177490 
	C410.078217,527.791870 408.218506,529.183289 406.974915,530.238403 
	C407.165009,532.491455 408.190155,532.853943 409.036743,533.302307 
	C419.911621,539.062195 424.375305,548.419495 422.971283,560.231628 
	C421.520874,572.433838 414.968994,581.221863 402.971619,585.233398 
	C399.674652,586.335876 396.206909,586.927612 392.377563,587.846191 
M359.185883,556.488037 
	C359.197540,559.483459 359.199066,562.478943 359.224854,565.474243 
	C359.239044,567.123718 359.720673,568.613953 361.659393,568.581909 
	C371.614441,568.417480 381.658966,569.848267 391.502228,567.793335 
	C398.947327,566.239197 402.475769,560.827820 401.734283,553.554749 
	C401.124512,547.573303 395.816193,542.713379 389.000732,542.346863 
	C383.523102,542.052307 378.021606,542.167297 372.530670,542.160522 
	C359.198517,542.144043 359.198486,542.158142 359.185883,556.488037 
M390.867065,522.685303 
	C395.785400,519.742920 398.411560,515.140808 397.542297,510.469299 
	C396.556274,505.170227 393.339966,502.068085 387.950165,501.061432 
	C379.533752,499.489502 371.066803,500.520172 362.625214,500.337402 
	C360.036713,500.281372 359.237213,501.959015 359.242249,504.265656 
	C359.253876,509.579224 359.254272,514.892944 359.233978,520.206482 
	C359.225891,522.327881 359.940033,523.845337 362.330292,523.775757 
	C371.594788,523.505981 380.903961,524.761841 390.867065,522.685303 
z"/>
<path fill="#000000" opacity="1.000000" stroke="none" 
	d="
M321.327667,570.738892 
	C323.104797,575.279724 324.730316,579.467834 326.433655,583.624084 
	C327.689392,586.688232 326.541718,588.066589 323.423615,588.081909 
	C318.259583,588.107239 313.094879,588.033997 307.931305,588.085938 
	C305.322693,588.112183 304.055389,586.667175 303.223633,584.426697 
	C301.427063,579.587280 299.468597,574.807068 297.726196,569.948914 
	C296.564667,566.710266 294.612640,565.276733 291.016998,565.319702 
	C278.524231,565.468994 266.026062,565.472351 253.534882,565.252136 
	C249.700287,565.184631 247.668854,566.791687 246.431000,570.132812 
	C244.696609,574.814270 242.710999,579.408325 241.132156,584.139648 
	C240.182877,586.984314 238.458771,588.147583 235.614319,588.136597 
	C230.783325,588.117920 225.951767,588.123657 221.121140,588.179077 
	C217.457275,588.221069 216.249039,586.670105 217.616089,583.185547 
	C220.777908,575.125977 223.801224,567.010681 227.062042,558.991699 
	C236.970764,534.624023 247.041931,510.322052 256.851776,485.914856 
	C258.493469,481.830170 260.892670,480.325439 265.155762,480.575165 
	C269.970367,480.857208 274.824524,480.826080 279.642456,480.571289 
	C283.328369,480.376373 285.332947,481.648956 286.749695,485.187988 
	C298.133453,513.623962 309.699280,541.987122 321.327667,570.738892 
M259.113525,536.487061 
	C258.270142,538.948853 256.744598,541.243591 257.194336,544.239990 
	C266.910065,544.239990 276.551147,544.239990 287.333832,544.239990 
	C282.134460,530.670471 277.235168,517.884155 272.335876,505.097809 
	C271.942902,505.135101 271.549927,505.172363 271.156982,505.209656 
	C267.222412,515.391724 263.287872,525.573853 259.113525,536.487061 
z"/>
<path fill="#000000" opacity="1.000000" stroke="none" 
	d="
M508.223572,553.000000 
	C508.222107,563.161621 508.075592,572.826477 508.287384,582.483459 
	C508.378113,586.619751 506.746979,588.213745 502.752472,588.165039 
	C484.834137,587.946533 487.906006,589.778503 487.672485,573.994507 
	C487.509857,563.002625 487.679565,552.005249 487.464813,541.014954 
	C487.335663,534.406738 484.750977,529.099609 478.329376,526.181519 
	C471.936584,523.276428 465.878784,524.153870 460.390594,528.066650 
	C455.301422,531.694885 453.230957,537.162170 453.176025,543.281372 
	C453.062439,555.940247 453.132263,568.600647 453.088531,581.260315 
	C453.066559,587.623047 452.596100,588.198120 446.292938,588.153137 
	C429.939880,588.036377 432.767120,590.021790 432.659393,574.870544 
	C432.447510,545.060242 432.598938,515.247375 432.621002,485.435547 
	C432.625519,479.316803 432.887695,479.016357 439.202393,479.060822 
	C455.059387,479.172485 452.884735,477.418610 453.084717,492.935425 
	C453.169586,499.520691 453.098846,506.107941 453.098846,512.572449 
	C455.641663,513.005554 456.665588,511.704590 457.822937,510.879272 
	C468.517853,503.252441 479.953247,502.734680 491.346436,508.450592 
	C502.608673,514.100891 507.802917,524.036011 508.147461,536.509094 
	C508.294617,541.835999 508.205444,547.169495 508.223572,553.000000 
z"/>
<path fill="#000000" opacity="1.000000" stroke="none" 
	d="
M793.784241,587.091003 
	C785.831177,589.456360 778.105469,590.691589 770.224121,589.751221 
	C740.009033,586.145691 730.187134,559.982361 734.984497,537.831909 
	C740.703369,511.426788 769.387512,497.391174 793.860107,508.954498 
	C808.420776,515.834351 813.517090,528.565918 814.239563,543.599854 
	C814.750305,554.226562 814.545776,554.258179 803.874268,554.290161 
	C789.711609,554.332581 775.548828,554.319702 761.386292,554.379395 
	C759.612000,554.386902 757.722534,553.871521 756.099915,555.054321 
	C756.302673,566.537720 767.778625,572.317261 779.164673,571.554260 
	C785.661072,571.118896 791.551575,568.949829 796.553650,564.744324 
	C798.986084,562.699280 800.939575,562.854309 802.960815,565.201965 
	C804.263550,566.715088 805.690674,568.122437 807.084778,569.555176 
	C812.247742,574.860840 812.250122,575.145203 806.790100,580.006104 
	C803.111084,583.281433 798.573975,585.015320 793.784241,587.091003 
M764.744629,525.072327 
	C759.171509,528.038818 756.496643,532.830566 755.407837,539.428711 
	C768.174011,539.428711 780.367310,539.428711 792.538391,539.428711 
	C793.114807,531.872803 788.722534,525.667175 781.503662,523.502014 
	C775.986328,521.847229 770.645874,522.607666 764.744629,525.072327 
z"/>
<path fill="#000000" opacity="1.000000" stroke="none" 
	d="
M594.078003,524.058899 
	C603.339539,542.244385 602.365906,559.398926 590.061829,575.395813 
	C573.073242,597.483032 535.883728,593.706543 522.203125,569.318909 
	C510.756256,548.913147 517.627625,521.401306 538.517090,510.027893 
	C558.041504,499.397705 581.625488,505.123688 594.078003,524.058899 
M574.924500,532.671326 
	C572.840454,530.035217 570.487244,527.742065 567.382202,526.285828 
	C553.944580,519.983398 540.247742,528.257263 537.601379,544.302124 
	C535.908997,554.563110 542.118225,565.987244 551.095398,569.129150 
	C561.063660,572.617981 571.161499,568.952759 576.383240,559.753235 
	C581.486023,550.763245 580.498901,541.906189 574.924500,532.671326 
z"/>
<path fill="#000000" opacity="1.000000" stroke="none" 
	d="
M667.672546,513.259033 
	C666.950439,517.930725 664.623657,521.662537 663.143005,525.716980 
	C662.021973,528.786621 660.017212,529.244141 657.245178,527.665649 
	C652.870911,525.174683 648.210388,523.476501 643.203125,522.692505 
	C640.170837,522.217712 637.222778,522.436523 634.290955,523.160034 
	C631.325867,523.891724 628.943848,525.667664 628.475952,528.673706 
	C628.005859,531.694214 630.385986,533.427490 632.794739,534.780884 
	C635.738953,536.435120 638.978943,537.218079 642.259094,537.819702 
	C647.191589,538.724365 651.980164,540.127502 656.652832,541.916138 
	C667.458191,546.052124 673.081238,553.543457 673.239075,563.913147 
	C673.396667,574.268433 667.213623,583.684143 656.914429,587.346558 
	C639.017273,593.710999 622.510620,589.263977 606.865112,579.869629 
	C604.763794,578.607849 604.433411,576.823364 605.972595,574.814758 
	C606.175110,574.550476 606.369324,574.275452 606.601807,574.039246 
	C609.663269,570.928467 610.129089,565.106445 614.039001,563.765808 
	C617.892700,562.444336 620.964905,567.449341 624.891602,568.770264 
	C631.118591,570.864746 637.372498,572.443909 643.976135,571.722961 
	C647.603943,571.326843 651.106201,570.210632 651.677917,565.939087 
	C652.253052,561.641968 649.307190,559.650635 645.702637,558.524963 
	C641.892944,557.335205 638.052307,556.237854 634.200439,555.191284 
	C629.216003,553.836975 624.340454,552.291504 619.622253,550.083130 
	C602.992920,542.299805 604.814453,519.419983 617.316772,511.089569 
	C628.738403,503.479248 641.111328,503.238831 653.785156,506.495605 
	C658.682800,507.754150 663.909546,508.800446 667.672546,513.259033 
z"/>
<path fill="#000000" opacity="1.000000" stroke="none" 
	d="
M705.935242,588.439819 
	C693.588074,585.354797 688.342163,578.637146 687.984436,565.084534 
	C687.685608,553.761475 687.711670,542.423767 687.893433,531.097351 
	C687.959473,526.980652 687.053040,524.578735 682.414612,525.236267 
	C677.453979,525.939514 675.757080,523.415527 676.086487,518.852844 
	C676.194336,517.359253 676.139465,515.852234 676.281921,514.363098 
	C676.970154,507.167358 676.980347,507.052795 684.375183,506.751404 
	C687.358643,506.629822 688.506104,505.738464 688.245728,502.568512 
	C687.919678,498.599091 688.161194,494.582245 688.176880,490.585907 
	C688.187683,487.830383 689.519897,486.251556 692.319519,485.950836 
	C696.453247,485.506714 700.592529,485.094635 704.710693,484.532074 
	C707.395447,484.165314 708.368469,485.374115 708.373840,487.860962 
	C708.383911,492.525879 708.435852,497.190704 708.473755,501.855560 
	C708.501709,505.294403 709.951843,507.077942 713.675476,506.814880 
	C716.658508,506.604156 719.672302,506.740631 722.669067,506.831940 
	C728.200195,507.000488 728.188171,507.163696 728.252502,517.926392 
	C728.277527,522.117249 728.221863,525.778687 722.384155,525.283325 
	C719.408264,525.030823 716.384094,525.403625 713.392639,525.262695 
	C710.298828,525.116943 708.596985,526.360596 708.544983,529.489258 
	C708.362183,540.479004 707.884949,551.486755 708.793701,562.449707 
	C709.291321,568.453796 711.206543,569.809021 717.190491,570.013916 
	C728.196777,570.390747 727.945068,570.396973 728.220947,581.529175 
	C728.344421,586.513672 726.537781,588.326477 721.775024,588.691833 
	C716.603210,589.088440 711.488525,589.508728 705.935242,588.439819 
z"/>
<path fill="#000000" opacity="1.000000" stroke="none" 
	d="
M843.934082,534.000000 
	C843.953674,550.327393 843.856934,566.156372 844.068115,581.981201 
	C844.128967,586.537598 842.459900,588.416748 837.970093,588.108337 
	C835.649719,587.948914 833.307373,588.115967 830.974976,588.122498 
	C823.151855,588.144348 823.049744,588.064880 823.036438,580.440918 
	C823.014465,567.779114 823.011719,555.117371 823.023621,542.455566 
	C823.040283,524.628784 823.037903,506.801849 823.124207,488.975372 
	C823.163940,480.764648 823.252319,480.775848 831.241150,479.618042 
	C833.052612,479.355438 834.846558,478.974030 836.652405,478.670349 
	C843.691833,477.486664 843.916870,477.640015 843.931519,485.017822 
	C843.963623,501.178467 843.937317,517.339233 843.934082,534.000000 
z"/>
</svg>